<svg xmlns="http://www.w3.org/2000/svg" xmlns:xlink="http://www.w3.org/1999/xlink" width="210" height="43.42"><rect width="210" height="43.42" rx="0" ry="0" class="a"/><svg height="43.42" viewBox="0 0 21 4.342" width="210" xmlns="http://www.w3.org/2000/svg" xmlns:xlink="http://www.w3.org/1999/xlink"><style>@keyframes h{0%{transform:translateX(0)}.4%{transform:translateX(-21px)}.6%{transform:translateX(-42px)}2.2%{transform:translateX(-63px)}3.7%{transform:translateX(-84px)}5.4%{transform:translateX(-105px)}7.1%{transform:translateX(-126px)}8.8%{transform:translateX(-147px)}12%{transform:translateX(-168px)}14%{transform:translateX(-189px)}15.8%{transform:translateX(-210px)}17.5%{transform:translateX(-231px)}19.3%{transform:translateX(-252px)}21%{transform:translateX(-273px)}22.7%{transform:translateX(-294px)}25.8%{transform:translateX(-315px)}27.9%{transform:translateX(-336px)}29.6%{transform:translateX(-357px)}31.4%{transform:translateX(-378px)}33.1%{transform:translateX(-399px)}34.8%{transform:translateX(-420px)}40%{transform:translateX(-441px)}42.3%{transform:translateX(-462px)}44.6%{transform:translateX(-483px)}46.8%{transform:translateX(-504px)}49.1%{transform:translateX(-525px)}52.7%{transform:translateX(-546px)}54.8%{transform:translateX(-567px)}56.6%{transform:translateX(-588px)}58.3%{transform:translateX(-609px)}60.1%{transform:translateX(-630px)}61.8%{transform:translateX(-651px)}63.6%{transform:translateX(-672px)}65.3%{transform:translateX(-693px)}67%{transform:translateX(-714px)}68.8%{transform:translateX(-735px)}70.5%{transform:translateX(-756px)}to{transform:translateX(-777px)}}.a{fill:#00000000}.c,.d,.e,.j{white-space:pre}.c{fill:#6980fa;font-weight:700}.d,.e,.j{fill:#78909c}.e,.j{fill:#ec407a;font-weight:700}.j{fill:#7c4dff}</style><g font-family="Monaco,Consolas,Menlo,'Bitstream Vera Sans Mono','Powerline Symbols',monospace" font-size="1.67"><defs><symbol id="1"><text y="1.67" class="c">Hello</text></symbol><symbol id="2"><text y="1.67" class="c">Hello</text><text x="5.01" y="1.67" class="d">,</text></symbol><symbol id="3"><text y="1.67" class="c">Hello</text><text x="5.01" y="1.67" class="d">,</text><text x="7.014" y="1.67" class="d">I&apos;m</text></symbol><symbol id="4"><text y="1.67" class="c">Hello</text><text x="5.01" y="1.67" class="d">,</text><text x="7.014" y="1.67" class="d">I&apos;m</text><text x="11.022" y="1.67" class="e">Haris</text></symbol><symbol id="a"><path fill="transparent" d="M0 0h21v2H0z"/></symbol><symbol id="b"><path fill="#6f7683" d="M0 0h1.102v2.171H0z"/></symbol></defs><path class="a" d="M0 0h21v4.342H0z"/><g style="animation-duration:3.801143s;animation-iteration-count:infinite;animation-name:h;animation-timing-function:steps(1,end)"><svg width="798"><svg><use xlink:href="#a"/><use xlink:href="#b" x="-.004"/></svg><svg x="21"><use xlink:href="#a"/><use xlink:href="#b" x="-.004"/></svg><svg x="42"><use xlink:href="#a"/><use xlink:href="#b" x="-.004"/></svg><svg x="63"><use xlink:href="#a"/><use xlink:href="#b" x=".996"/><text y="1.67" class="c">H</text></svg><svg x="84"><use xlink:href="#a"/><use xlink:href="#b" x="1.996"/><text y="1.67" class="c">He</text></svg><svg x="105"><use xlink:href="#a"/><use xlink:href="#b" x="2.996"/><text y="1.67" class="c">Hel</text></svg><svg x="126"><use xlink:href="#a"/><use xlink:href="#b" x="3.996"/><text y="1.67" class="c">Hell</text></svg><svg x="147"><use xlink:href="#a"/><use xlink:href="#b" x="4.996"/><use xlink:href="#1"/></svg><svg x="168"><use xlink:href="#a"/><use xlink:href="#b" x="4.996"/><use xlink:href="#1"/></svg><svg x="189"><use xlink:href="#a"/><use xlink:href="#b" x="5.996"/><use xlink:href="#2"/></svg><svg x="210"><use xlink:href="#a"/><use xlink:href="#b" x="6.996"/><use xlink:href="#2"/></svg><svg x="231"><use xlink:href="#a"/><use xlink:href="#b" x="7.996"/><text y="1.67" class="c">Hello</text><text x="5.01" y="1.67" class="d">,</text><text x="7.014" y="1.67" class="d">I</text></svg><svg x="252"><use xlink:href="#a"/><use xlink:href="#b" x="8.996"/><text y="1.67" class="c">Hello</text><text x="5.01" y="1.67" class="d">,</text><text x="7.014" y="1.67" class="d">I&apos;</text></svg><svg x="273"><use xlink:href="#a"/><use xlink:href="#b" x="9.996"/><use xlink:href="#3"/></svg><svg x="294"><use xlink:href="#a"/><use xlink:href="#b" x="10.996"/><use xlink:href="#3"/></svg><svg x="315"><use xlink:href="#a"/><use xlink:href="#b" x="10.996"/><use xlink:href="#3"/></svg><svg x="336"><use xlink:href="#a"/><use xlink:href="#b" x="11.996"/><text y="1.67" class="c">Hello</text><text x="5.01" y="1.67" class="d">,</text><text x="7.014" y="1.67" class="d">I&apos;m</text><text x="11.022" y="1.67" class="e">H</text></svg><svg x="357"><use xlink:href="#a"/><use xlink:href="#b" x="12.996"/><text y="1.67" class="c">Hello</text><text x="5.01" y="1.67" class="d">,</text><text x="7.014" y="1.67" class="d">I&apos;m</text><text x="11.022" y="1.67" class="e">Ha</text></svg><svg x="378"><use xlink:href="#a"/><use xlink:href="#b" x="13.996"/><text y="1.67" class="c">Hello</text><text x="5.01" y="1.67" class="d">,</text><text x="7.014" y="1.67" class="d">I&apos;m</text><text x="11.022" y="1.67" class="e">Har</text></svg><svg x="399"><use xlink:href="#a"/><use xlink:href="#b" x="14.996"/><text y="1.67" class="c">Hello</text><text x="5.01" y="1.67" class="d">,</text><text x="7.014" y="1.67" class="d">I&apos;m</text><text x="11.022" y="1.67" class="e">Hari</text></svg><svg x="420"><use xlink:href="#a"/><use xlink:href="#b" x="15.996"/><use xlink:href="#4"/></svg><svg x="441"><use xlink:href="#a"/><use xlink:href="#b" x="14.996"/><use xlink:href="#4"/></svg><svg x="462"><use xlink:href="#a"/><use xlink:href="#b" x="13.996"/><use xlink:href="#4"/></svg><svg x="483"><use xlink:href="#a"/><use xlink:href="#b" x="12.996"/><use xlink:href="#4"/></svg><svg x="504"><use xlink:href="#a"/><use xlink:href="#b" x="11.996"/><use xlink:href="#4"/></svg><svg x="525"><use xlink:href="#a"/><use xlink:href="#b" x="10.996"/><use xlink:href="#4"/></svg><svg x="546"><use xlink:href="#a"/><use xlink:href="#b" x="10.996"/><use xlink:href="#4"/></svg><svg x="567"><use xlink:href="#a"/><use xlink:href="#b" x="11.996"/><text y="1.67" class="c">Hello</text><text x="5.01" y="1.67" class="d">,</text><text x="7.014" y="1.67" class="d">I&apos;m</text><text x="11.022" y="1.67" class="j">v</text><text x="12.024" y="1.67" class="e">aris</text></svg><svg x="588"><use xlink:href="#a"/><use xlink:href="#b" x="12.996"/><text y="1.67" class="c">Hello</text><text x="5.01" y="1.67" class="d">,</text><text x="7.014" y="1.67" class="d">I&apos;m</text><text x="11.022" y="1.67" class="j">ve</text><text x="13.026" y="1.67" class="e">ris</text></svg><svg x="609"><use xlink:href="#a"/><use xlink:href="#b" x="13.996"/><text y="1.67" class="c">Hello</text><text x="5.01" y="1.67" class="d">,</text><text x="7.014" y="1.67" class="d">I&apos;m</text><text x="11.022" y="1.67" class="j">ver</text><text x="14.028" y="1.67" class="e">is</text></svg><svg x="630"><use xlink:href="#a"/><use xlink:href="#b" x="14.996"/><text y="1.67" class="c">Hello</text><text x="5.01" y="1.67" class="d">,</text><text x="7.014" y="1.67" class="d">I&apos;m</text><text x="11.022" y="1.67" class="j">vera</text><text x="15.03" y="1.67" class="e">s</text></svg><svg x="651"><use xlink:href="#a"/><use xlink:href="#b" x="15.996"/><text y="1.67" class="c">Hello</text><text x="5.01" y="1.67" class="d">,</text><text x="7.014" y="1.67" class="d">I&apos;m</text><text x="11.022" y="1.67" class="j">verac</text></svg><svg x="672"><use xlink:href="#a"/><use xlink:href="#b" x="16.996"/><text y="1.67" class="c">Hello</text><text x="5.01" y="1.67" class="d">,</text><text x="7.014" y="1.67" class="d">I&apos;m</text><text x="11.022" y="1.67" class="j">veraci</text></svg><svg x="693"><use xlink:href="#a"/><use xlink:href="#b" x="17.996"/><text y="1.67" class="c">Hello</text><text x="5.01" y="1.67" class="d">,</text><text x="7.014" y="1.67" class="d">I&apos;m</text><text x="11.022" y="1.67" class="j">veracio</text></svg><svg x="714"><use xlink:href="#a"/><use xlink:href="#b" x="18.996"/><text y="1.67" class="c">Hello</text><text x="5.01" y="1.67" class="d">,</text><text x="7.014" y="1.67" class="d">I&apos;m</text><text x="11.022" y="1.67" class="j">veraciou</text></svg><svg x="735"><use xlink:href="#a"/><use xlink:href="#b" x="19.996"/><text y="1.67" class="c">Hello</text><text x="5.01" y="1.67" class="d">,</text><text x="7.014" y="1.67" class="d">I&apos;m</text><text x="11.022" y="1.67" class="j">veracioux</text></svg><svg x="756"><use xlink:href="#a"/><use xlink:href="#b" x="20.996"/><text y="1.67" class="c">Hello</text><text x="5.01" y="1.67" class="d">,</text><text x="7.014" y="1.67" class="d">I&apos;m</text><text x="11.022" y="1.67" class="j">veracioux.</text></svg><svg x="777"><use xlink:href="#a"/><use xlink:href="#b" x="-.004" y="2.146"/><text y="1.67" class="j">.</text></svg></svg></g></g></svg></svg>