<?xml version="1.0" encoding="UTF-8"?><svg id="uuid-762b5071-6f5c-47f3-8fc3-bb8a2e301718" xmlns="http://www.w3.org/2000/svg" viewBox="0 0 567.85 200.77">
<title>NestJS logo - Brandlogos.net</title><path d="M118.68,0c-1.46,0-2.81.31-4.06.73,2.65,1.77,4.11,4.11,4.84,6.77.05.36.16.62.21.99.05.31.1.62.1.94.21,4.58-1.2,5.15-2.19,7.86-1.51,3.49-1.09,7.24.73,10.25.16.36.36.78.62,1.15-1.98-13.17,9.01-15.15,11.04-19.26.16-3.59-2.81-5.99-5.15-7.65C122.58.42,120.55,0,118.68,0h0ZM135.23,2.97c-.21,1.2-.05.88-.1,1.51-.05.42-.05.94-.1,1.35-.1.42-.21.83-.36,1.25-.1.42-.26.83-.42,1.25-.21.42-.36.78-.57,1.2-.16.21-.26.42-.42.62-.1.16-.21.31-.31.47-.26.36-.52.73-.78,1.04-.31.31-.57.68-.94.94v.05c-.31.26-.62.57-.99.83-1.09.83-2.34,1.46-3.49,2.24-.36.26-.73.47-1.04.78-.36.26-.68.52-.99.83-.36.31-.62.62-.94.99-.26.31-.57.68-.78,1.04-.26.36-.52.73-.73,1.09-.21.42-.36.78-.57,1.2-.16.42-.31.78-.42,1.2-.16.47-.26.88-.36,1.3-.05.21-.05.47-.1.68-.05.21-.05.42-.1.62,0,.42-.05.88-.05,1.3,0,.31,0,.62.05.94,0,.42.05.83.16,1.3.05.42.16.83.26,1.25.16.42.26.83.42,1.25.1.26.26.52.36.73l-11.97-4.63c-2.03-.57-4.01-1.09-6.04-1.56-1.09-.26-2.19-.52-3.28-.78-3.12-.62-6.3-1.09-9.47-1.41-.1,0-.16-.05-.26-.05-3.12-.31-6.19-.47-9.32-.47-2.29,0-4.58.1-6.82.26-3.18.21-6.35.62-9.53,1.15-.78.1-1.56.26-2.34.42-1.61.31-3.18.68-4.68,1.04-.78.21-1.56.42-2.34.62-.78.31-1.51.68-2.24.99-.57.26-1.15.52-1.72.78-.1.05-.21.05-.26.1-.52.26-.99.47-1.46.73-.16.05-.26.1-.36.16-.57.26-1.15.57-1.61.83-.36.16-.73.36-1.04.52-.16.1-.36.21-.47.26-.47.26-.94.52-1.35.78-.47.26-.88.52-1.25.78-.36.26-.73.47-1.04.73-.05.05-.1.05-.16.1-.31.21-.68.47-.99.73,0,0-.05.05-.1.1-.26.21-.52.42-.78.62-.1.05-.21.16-.31.21-.26.21-.52.47-.78.68-.05.1-.16.16-.21.21-.31.31-.62.57-.94.88-.05,0-.05.05-.1.1-.31.26-.62.57-.94.88-.05.05-.05.1-.1.1-.26.26-.52.52-.78.83-.1.1-.26.21-.36.31-.26.31-.57.62-.88.94-.05.1-.16.16-.21.26-.42.42-.78.83-1.2,1.25-.05.05-.1.1-.16.16-.83.88-1.72,1.77-2.65,2.55-.94.83-1.93,1.61-2.91,2.29-1.04.73-2.03,1.35-3.12,1.98-1.04.57-2.13,1.09-3.28,1.56-1.09.47-2.24.88-3.38,1.25-2.19.47-4.42,1.35-6.35,1.51-.42,0-.88.1-1.3.16-.47.1-.88.21-1.3.31-.42.16-.83.31-1.25.47-.42.16-.83.36-1.25.57-.36.26-.78.47-1.15.73-.36.26-.73.57-1.04.88-.36.26-.73.62-1.04.94-.31.36-.62.68-.88,1.04-.26.42-.57.78-.78,1.2-.26.36-.52.78-.73,1.2-.21.47-.42.88-.57,1.35-.16.42-.31.88-.47,1.35-.1.42-.21.83-.26,1.25,0,.05-.05.1-.05.16-.1.47-.1,1.09-.16,1.41-.05.36-.1.68-.1,1.04,0,.21,0,.47.05.68.05.36.1.68.21.99.1.31.21.62.36.94v.05c.16.31.36.62.57.94.21.31.42.62.68.94.26.26.57.57.88.83.31.31.62.57.99.83,1.25,1.09,1.56,1.46,3.18,2.29.26.16.52.26.83.42.05,0,.1.05.16.05,0,.1,0,.16.05.26.05.42.16.83.26,1.25.1.47.26.88.42,1.25.16.31.26.62.42.94.05.1.1.21.16.26.21.42.42.78.62,1.15.26.36.52.73.78,1.09.26.31.57.68.88.99.31.31.62.57.99.88,0,0,.05.05.1.05.31.26.62.52.94.73.36.26.73.47,1.15.68.36.21.78.42,1.2.57.31.16.68.26,1.04.36.05.05.1.05.21.1.21.05.47.1.68.16-.16,2.81-.21,5.47.21,6.4.47,1.04,2.76-2.13,5.05-5.78-.31,3.59-.52,7.81,0,9.06.57,1.3,3.7-2.76,6.4-7.24,36.91-8.54,70.58,16.97,74.12,52.99-.68-5.62-7.6-8.74-10.77-7.96-1.56,3.85-4.22,8.8-8.48,11.87.36-3.44.21-6.98-.52-10.41-1.15,4.79-3.38,9.27-6.45,13.12-4.94.36-9.89-2.03-12.49-5.62-.21-.16-.26-.47-.42-.68-.16-.36-.31-.73-.42-1.09-.16-.36-.26-.73-.31-1.09-.05-.36-.05-.73-.05-1.15v-.78c.05-.36.16-.73.26-1.09.1-.36.21-.73.36-1.09.21-.36.36-.73.62-1.09.88-2.5.88-4.53-.73-5.73-.31-.21-.62-.36-.99-.52-.21-.05-.47-.16-.68-.21-.16-.05-.26-.1-.42-.16-.36-.1-.73-.21-1.09-.26-.36-.1-.73-.16-1.09-.16-.36-.05-.78-.1-1.15-.1-.26,0-.52.05-.78.05-.42,0-.78.05-1.15.16-.36.05-.73.1-1.09.21-.36.1-.73.21-1.09.36-.36.16-.68.31-1.04.47-.31.16-.62.36-.99.52-12.13,7.91-4.89,26.44,3.38,31.8-3.12.57-6.3,1.25-7.18,1.93-.05.05-.1.1-.1.1,2.24,1.35,4.58,2.5,7.03,3.49,3.33,1.09,6.87,2.08,8.43,2.5v.05c4.32.88,8.69,1.2,13.12.94,23.06-1.61,41.95-19.16,45.39-42.27.1.47.21.88.31,1.35.16.94.36,1.93.47,2.91v.05c.1.47.16.94.21,1.35v.21c.05.47.1.94.1,1.35.05.57.1,1.15.1,1.72v.83c0,.26.05.57.05.83,0,.31-.05.62-.05.94v.73c0,.36-.05.68-.05,1.04,0,.21,0,.42-.05.68,0,.36-.05.73-.05,1.15-.05.16-.05.31-.05.47-.05.42-.1.78-.16,1.2,0,.16,0,.31-.05.47-.05.52-.16.99-.21,1.51v.1c-.1.47-.21.99-.31,1.46v.16c-.1.47-.21.94-.31,1.41,0,.05-.05.16-.05.21-.1.47-.21.94-.36,1.41v.16c-.16.52-.31.99-.42,1.46-.05.05-.05.1-.05.1-.16.52-.31,1.04-.47,1.56-.21.52-.36.99-.57,1.51-.21.52-.36,1.04-.57,1.51-.21.52-.42.99-.62,1.51h-.05c-.21.47-.42.99-.68,1.46-.05.16-.1.26-.16.36-.05.05-.05.1-.1.16-3.38,6.82-8.38,12.8-14.63,17.49-.42.26-.83.57-1.25.88-.1.1-.26.16-.36.26-.36.26-.73.52-1.15.78l.16.31h.05c.73-.1,1.46-.21,2.19-.31h.05c1.35-.21,2.71-.47,4.06-.73.36-.05.78-.16,1.15-.26.26-.05.47-.1.73-.16.36-.05.73-.16,1.09-.21.31-.1.62-.16.94-.26,5.21-1.25,10.25-2.97,15.1-5-8.28,11.3-19.36,20.4-32.32,26.39,5.99-.42,11.97-1.41,17.75-3.07,20.98-6.19,38.62-20.3,49.19-39.3-2.13,12.02-6.92,23.48-14,33.47,5.05-3.33,9.68-7.18,13.9-11.56,11.66-12.18,19.31-27.64,21.91-44.24,1.77,8.22,2.29,16.71,1.51,25.09,37.58-52.42,3.12-106.76-11.3-121.07-.05-.1-.1-.16-.1-.26q-.05.05-.05.1t-.05-.1c0,.62-.05,1.25-.1,1.87-.16,1.2-.31,2.34-.52,3.49-.26,1.15-.57,2.29-.88,3.44-.36,1.09-.78,2.24-1.25,3.33-.47,1.04-.99,2.13-1.56,3.18-.57.99-1.2,2.03-1.87,2.97-.68.99-1.41,1.93-2.13,2.81-.78.94-1.61,1.77-2.45,2.6-.52.47-.99.88-1.51,1.3-.42.36-.78.68-1.2,1.04-.94.73-1.87,1.41-2.91,2.03-.99.62-2.03,1.25-3.07,1.77-1.09.52-2.19.99-3.28,1.46-1.09.42-2.24.78-3.38,1.09-1.15.31-2.34.57-3.49.78-1.2.21-2.39.31-3.54.42-.83.05-1.67.1-2.5.1-1.2,0-2.39-.1-3.54-.21-1.2-.1-2.39-.26-3.54-.52-1.2-.21-2.34-.52-3.49-.88h-.05c1.15-.1,2.29-.21,3.44-.42,1.2-.21,2.34-.47,3.49-.78,1.15-.31,2.29-.68,3.38-1.09,1.15-.42,2.24-.94,3.28-1.46,1.09-.52,2.08-1.09,3.12-1.72.99-.68,1.98-1.35,2.91-2.08.94-.73,1.82-1.51,2.65-2.34.88-.78,1.67-1.67,2.45-2.55.78-.94,1.51-1.87,2.19-2.81.1-.16.21-.36.31-.52.52-.83,1.04-1.67,1.51-2.5.57-1.04,1.09-2.08,1.56-3.18.47-1.09.88-2.19,1.25-3.33.36-1.09.62-2.24.88-3.38.21-1.2.42-2.34.52-3.49.1-1.2.21-2.39.21-3.54,0-.83-.05-1.67-.1-2.5-.1-1.2-.26-2.34-.42-3.49-.21-1.2-.47-2.34-.78-3.49-.36-1.09-.73-2.24-1.15-3.33-.42-1.09-.94-2.19-1.46-3.23-.57-1.04-1.15-2.08-1.77-3.07-.68-.99-1.35-1.93-2.08-2.86-.78-.88-1.56-1.77-2.39-2.65-.42-.42-.88-.88-1.35-1.3-2.34-1.82-4.79-3.54-7.24-5.1-.36-.21-.68-.36-1.04-.52-1.72-1.09-3.33-1.67-4.95-2.19h0Z" style="fill:#ea2845; fill-rule:evenodd;"/><path d="M249.62,135.66c1.53-.72,2.97-1.17,4.32-1.44,3.33-.54,5.22-.99,5.76-1.35.9-.54,1.53-1.26,1.8-1.98.36-1.26.54-3.87.54-8.01v-7.83l.09-6.39-.27-9.54v-5.67c0-3.78-.27-6.93-.9-9.27-.18-.9-.99-1.8-2.25-2.7-1.71-1.26-4.5-2.43-8.55-3.6l-.09-4.32c.72-.18,1.44-.36,2.07-.45.63-.09,3.06-.72,7.29-1.8,3.33-1.17,5.49-2.07,6.39-2.52.36-.18.81-.45,1.53-.81.72-.63,1.53-1.17,2.43-1.8,1.8-1.26,3.96-3.51,6.48-6.57l4.77-.36-.18,10.17c-.09.99-.09,1.8-.09,2.43,0,.54,0,1.89.09,4.14,5.04-4.32,9.54-7.29,13.68-9,5.31-2.25,10.44-3.33,15.21-3.33,5.67,0,10.71,1.44,14.94,4.23,4.32,2.79,7.11,6.03,8.37,9.63,1.35,3.69,1.98,11.16,1.98,22.24l-.36,29.53c0,1.35.27,2.52.72,3.42.63.45,2.34.9,5.04,1.35l4.41.81c.54.81.81,1.71.81,2.88,0,.72,0,1.71-.09,2.97l-17.73-1.26-5.22.18h-4.14l-11.97.9h-3.06c-.09-.81-.09-1.35-.09-1.8,0-1.08.09-2.25.18-3.51.81-.18,2.97-.45,6.3-.9.9-.09,1.89-.36,3.06-.63,1.17-.45,1.89-.99,2.07-1.44.45-1.08.72-2.97.72-5.85,0-5.13-.09-9-.18-11.7l.09-10.44c0-12.78-.72-20.7-2.34-23.77-2.34-4.59-5.76-6.84-10.35-6.84-3.33,0-6.84.9-10.44,2.61-3.69,1.71-7.38,4.32-11.25,7.83l-.18,1.53.18,5.67-.09,6.03.36,14.49-.18,2.25c0,9.81.36,15.39,1.17,16.65.81,1.26,3.78,2.61,9,4.14.18.99.27,1.8.27,2.25,0,.72-.27,1.8-.63,3.33-1.89.09-3.51.09-4.77.09s-3.24-.18-5.94-.54l-9.63-.18c-4.86,0-11.79.18-20.88.63-.27-.63-.36-1.26-.36-1.89,0-.45,0-1.44.09-2.88h0Z" style="fill:#ea2845;"/><path d="M355.94,92.36c1.62-5.13,2.97-8.55,4.23-10.17,3.33-4.95,6.93-8.82,10.71-11.61,3.87-2.79,7.29-4.59,10.35-5.49,4.05-1.17,7.2-1.71,9.72-1.71,5.67,0,10.26.45,13.68,1.35,3.51.81,6.48,2.07,8.82,3.69,3.33,2.34,6.03,4.77,8.1,7.11,2.07,2.43,3.69,5.31,4.95,8.55,1.35,3.24,2.07,7.2,2.25,11.79l-10.08-.18c-2.79,0-8.82-.27-18.27-.81-3.51-.18-5.85-.36-7.2-.36-.45,0-3.69.09-9.72.09h-7.83c-.09.9-.18,1.62-.18,2.16,0,3.24.45,6.57,1.17,10.17.81,3.51,1.98,6.57,3.51,9.27,1.62,2.7,3.51,4.95,5.85,6.84,2.34,1.98,4.77,3.33,7.2,4.23l5.22,1.71c4.68,0,7.74-.18,9.36-.45,2.88-.63,5.4-1.35,7.56-2.25,2.25-.99,4.86-2.61,8.01-4.86,2.16,1.62,3.96,2.97,5.49,4.32-5.31,5.76-10.89,10.08-16.56,12.69-5.67,2.61-12.06,3.87-19.08,3.87-4.77,0-8.64-.36-11.7-1.26-3.96-1.08-7.65-2.7-10.89-4.95-3.24-2.25-6.03-5.04-8.37-8.28-2.34-3.33-4.14-6.75-5.31-10.26-1.44-4.59-2.25-8.28-2.25-10.98,0-5.31.45-9.99,1.26-14.22h0ZM408.51,88.49c-.09-3.42-.72-6.57-1.98-9.72-1.26-3.06-3.24-5.4-5.94-7.11-2.61-1.71-5.31-2.61-8.01-2.61-4.05,0-7.65,1.8-10.98,5.31-3.24,3.6-5.04,8.37-5.49,14.49l20.61.09c1.35,0,3.24-.09,5.58-.27,1.8-.18,3.06-.27,3.78-.27.54,0,1.35,0,2.43.09h0Z" style="fill:#ea2845;"/><path d="M443.08,114.96c1.8-.36,3.15-.54,3.96-.54.45,0,1.08,0,1.89.09l.81.9c3.33,5.76,5.4,9.18,6.48,10.44,2.07,2.43,4.14,4.41,6.21,5.94,1.35.9,3.51,1.98,6.48,2.97,1.98.72,4.14,1.08,6.39,1.08,3.78,0,7.02-1.17,9.72-3.6,2.7-2.52,4.05-5.13,4.05-8.01,0-1.89-.54-3.51-1.53-4.86-.99-1.35-3.06-2.7-6.12-4.05-1.53-.63-5.31-1.71-11.43-3.24-6.03-1.53-9.63-2.52-10.89-2.97-2.88-1.08-5.4-2.61-7.56-4.5-2.25-1.98-3.87-4.14-5.04-6.57-1.53-3.42-2.34-6.39-2.34-8.82,0-4.59.72-8.28,1.98-11.25,1.35-2.88,3.24-5.49,5.67-7.74,1.71-1.71,4.32-3.24,7.83-4.59,3.51-1.35,7.38-2.07,11.34-2.07,5.76,0,10.8.36,15.12,1.17,4.32.81,8.01,1.98,10.98,3.51.45,1.35.9,4.59,1.62,9.54.63,5.04.99,8.01.99,8.91,0,.45-.09.9-.27,1.35-1.62.45-2.88.72-3.96.72-.54,0-1.44-.09-2.61-.18-.54-.81-1.26-2.16-2.16-3.78-2.88-5.4-5.85-9.18-8.91-11.34-3.06-2.25-6.48-3.33-10.53-3.33s-7.65,1.26-10.44,3.6c-2.07,1.8-3.06,4.14-3.06,7.2,0,1.98,1.08,3.96,3.24,6.03,2.07,2.07,5.76,3.69,10.98,4.77,7.92,1.71,13.77,3.51,17.46,5.22,5.4,2.52,9.27,5.58,11.43,9,2.16,3.42,3.33,7.38,3.33,11.88,0,7.02-2.7,12.87-8.01,17.55-5.22,4.59-12.87,6.93-23.05,6.93-1.26,0-4.77-.27-10.35-.9-2.52-.27-5.49-.9-8.91-1.8-.9-.27-3.06-1.08-6.66-2.61-.63-.36-1.08-.81-1.44-1.26-.18-.54-.63-3.06-1.17-7.56-.9-7.38-1.44-11.79-1.53-13.23h0Z" style="fill:#ea2845;"/><path d="M517.26,71.75c7.11-2.97,12.24-5.94,15.39-8.82,3.24-2.88,6.57-7.65,10.17-14.13h5.13c.54,1.62.81,3.24.81,4.95,0,3.15-.09,5.58-.09,7.38l-.27,5.31c0,.27,0,.99.09,2.07l2.07.09c.27,0,3.15-.09,8.46-.36.45,0,2.7-.09,6.75-.18.36,1.62.63,3.06.63,4.32,0,1.44-.27,3.06-.72,4.86-1.98.27-3.42.36-4.5.36-.45,0-1.44,0-2.88-.18h-4.68l-1.62-.09-4.32.18-.18,34.57c-.09,6.66,0,10.89.36,12.51.36,1.71,1.08,3.24,2.16,4.77,1.35.63,2.88.99,4.59.99,1.62,0,2.79-.18,3.6-.45.81-.36,2.16-1.17,3.96-2.61.36-.36.99-.72,1.71-1.26,1.44,1.08,2.7,2.25,3.6,3.42l.36,1.08c-2.16,3.33-5.13,5.94-9,7.83-3.78,1.89-7.83,2.79-12.15,2.79-5.67,0-10.17-1.8-13.68-5.31-3.51-3.6-5.22-9.09-5.22-16.56l.36-15.84v-25.84l-2.79-.09-6.57.09-1.17-.27c-.36-.54-.54-.99-.54-1.53,0-.36.09-1.71.18-4.05h0Z" style="fill:#ea2845;"/></svg>